<?xml version="1.0" encoding="UTF-8"?>
<svg version="1.1" xmlns="http://www.w3.org/2000/svg" width="708" height="467">
<path d="M0 0 C233.64 0 467.28 0 708 0 C708 154.11 708 308.22 708 467 C474.36 467 240.72 467 0 467 C0 312.89 0 158.78 0 0 Z " fill="#FBFBFB" transform="translate(0,0)"/>
<path d="M0 0 C1.21370821 -0.00623996 2.42741641 -0.01247993 3.67790365 -0.01890898 C7.03934795 -0.03209273 10.39989683 -0.02736311 13.7612865 -0.0149641 C17.38917272 -0.00591005 21.01698097 -0.01988507 24.64485168 -0.03088379 C31.74883046 -0.04866988 38.85264018 -0.04482868 45.95662558 -0.03323323 C51.73018698 -0.02419951 57.50370101 -0.02297463 63.27726746 -0.02732849 C64.50987297 -0.02824789 64.50987297 -0.02824789 65.76737961 -0.02918586 C67.43672503 -0.03046476 69.10607044 -0.03176162 70.77541584 -0.03307623 C86.42871958 -0.04448228 102.08192962 -0.03136793 117.73521799 -0.00987476 C131.16633971 0.00799626 144.59732315 0.00489216 158.02844238 -0.0135498 C173.62574557 -0.03495608 189.22296663 -0.04338364 204.82028246 -0.03110075 C206.48348521 -0.02982655 208.14668797 -0.02856907 209.80989075 -0.02732849 C210.6282173 -0.02671139 211.44654385 -0.02609429 212.28966817 -0.02545848 C218.05626592 -0.02200485 223.82281157 -0.02783421 229.58940125 -0.0372467 C236.61702656 -0.04846537 243.64447317 -0.04542952 250.67207801 -0.02412373 C254.25768486 -0.0136114 257.84299376 -0.00949428 261.4285984 -0.02272034 C265.31495349 -0.03683895 269.2008207 -0.01998059 273.0871582 0 C274.22120008 -0.00892289 275.35524196 -0.01784577 276.52364874 -0.02703905 C283.26989001 0.04044176 287.16625328 0.63060875 292.0435791 5.50793457 C293.01369291 13.94512632 290.88695763 22.0874729 289.0435791 30.25793457 C288.72603144 31.70153162 288.4096539 33.14538649 288.09436035 34.58947754 C287.59657415 36.8681721 287.09788461 39.14663617 286.59533691 41.42428589 C285.37607473 46.95281304 284.19776847 52.48891344 283.0435791 58.03137207 C282.8789769 58.82150696 282.71437469 59.61164185 282.54478455 60.42572021 C282.21163265 62.02554139 281.87853842 63.62537457 281.54550171 65.22521973 C278.96670726 77.5956561 276.29965769 89.93984919 273.4810791 102.25793457 C271.01286808 113.04542335 268.69352538 123.85310676 266.4810791 134.69543457 C266.33599915 135.40638275 266.19091919 136.11733093 266.04144287 136.849823 C265.75108217 138.27312595 265.46072772 139.69643019 265.17037964 141.11973572 C265.02798859 141.81760696 264.88559753 142.51547821 264.7388916 143.23449707 C264.52663437 144.27495934 264.52663437 144.27495934 264.31008911 145.33644104 C261.97794775 156.7461112 259.53469111 168.13198068 257.0435791 179.50793457 C256.84635254 180.41495117 256.64912598 181.32196777 256.44592285 182.25646973 C255.92551886 184.6342247 255.39374117 187.00903102 254.8560791 189.38293457 C254.57377441 190.63848145 254.29146973 191.89402832 254.00061035 193.18762207 C252.28127561 199.15266096 250.25566766 203.03320887 245.0435791 206.50793457 C240.41085088 208.92311115 236.12614666 208.77848514 231.03063965 208.73498535 C230.13258102 208.7352774 229.2345224 208.73556946 228.30924988 208.73587036 C225.34949992 208.73448027 222.39000367 208.7189341 219.43029785 208.70324707 C217.37478269 208.6995158 215.31926575 208.69666937 213.26374817 208.69467163 C207.85996571 208.68704416 202.45629116 208.6674032 197.05255127 208.64526367 C191.53590352 208.62478621 186.0192383 208.61566584 180.50256348 208.60559082 C169.68285467 208.58415653 158.86322587 208.55003121 148.0435791 208.50793457 C147.96575195 206.76612915 147.96575195 206.76612915 147.88635254 204.98913574 C147.80893346 203.44720579 147.73111274 201.90529596 147.6529541 200.36340332 C147.61992187 199.60023804 147.58688965 198.83707275 147.55285645 198.05078125 C147.06364083 188.77315661 144.22019367 182.37083964 138.0435791 175.50793457 C138.0435791 174.84793457 138.0435791 174.18793457 138.0435791 173.50793457 C137.45705566 173.22820801 136.87053223 172.94848145 136.26623535 172.66027832 C134.20086264 171.58947876 132.38976896 170.39373791 130.4810791 169.07043457 C119.02947111 161.95528108 105.42023906 162.0797805 92.6060791 165.00793457 C90.74744062 165.49104638 88.89126035 165.98447681 87.0435791 166.50793457 C89.24984308 157.55705077 92.2465938 148.93312698 95.34191895 140.26159668 C96.17764191 137.92004212 97.00755335 135.57648813 97.83654785 133.23254395 C98.36616603 131.73958839 98.89610202 130.24674553 99.4263916 128.75402832 C99.6743045 128.05514999 99.92221741 127.35627167 100.17764282 126.63621521 C101.92621849 121.7426558 101.92621849 121.7426558 103.0435791 119.50793457 C124.4935791 119.50793457 145.9435791 119.50793457 168.0435791 119.50793457 C170.41419329 112.43649043 170.41419329 112.43649043 172.6138916 105.32434082 C172.87041504 104.46002441 173.12693848 103.59570801 173.39123535 102.7052002 C173.91751144 100.92141517 174.44354605 99.13755889 174.96936035 97.3536377 C175.22330566 96.49834473 175.47725098 95.64305176 175.7388916 94.76184082 C176.0794458 93.6066394 176.0794458 93.6066394 176.42687988 92.42810059 C177.0435791 90.50793457 177.0435791 90.50793457 178.0435791 88.50793457 C157.5835791 88.50793457 137.1235791 88.50793457 116.0435791 88.50793457 C117.1684208 79.50920101 117.1684208 79.50920101 118.82092285 74.90637207 C119.34395996 73.42910645 119.34395996 73.42910645 119.87756348 71.92199707 C120.24172363 70.91910645 120.60588379 69.91621582 120.9810791 68.88293457 C121.69870827 66.86997834 122.41616143 64.85695936 123.13342285 62.84387207 C123.45174072 61.96263672 123.77005859 61.08140137 124.09802246 60.17346191 C125.1179835 57.29818833 126.07882428 54.40219904 127.0435791 51.50793457 C158.0635791 51.17793457 189.0835791 50.84793457 221.0435791 50.50793457 C225.9935791 35.65793457 225.9935791 35.65793457 231.0435791 20.50793457 C218.60344459 20.57102054 206.16355326 20.64657336 193.72363663 20.74364948 C187.94634668 20.78824369 182.16912548 20.82752374 176.39172363 20.85437012 C170.80892538 20.88051255 165.22639324 20.92099167 159.64376068 20.97112083 C157.52132241 20.98771582 155.39883818 20.99927571 153.2763443 21.00554848 C135.02421276 21.06491332 118.7882757 22.41142639 104.8092041 35.56652832 C94.6444002 46.74331491 90.42367767 63.61381578 86.17248535 77.7869873 C85.03638239 81.54248464 83.800929 85.19215889 82.30529785 88.82043457 C79.23819578 96.33465401 76.67016885 104.03297084 74.01593018 111.70004272 C72.69276339 115.52099724 71.36354213 119.3398363 70.03463745 123.15879822 C69.02184479 126.06944605 68.00974041 128.98033261 66.99768066 131.89123535 C64.39886568 139.36310836 61.79462914 146.83303146 59.17248535 154.29675293 C58.67798358 155.70611501 58.18477448 157.11593146 57.69299316 158.52624512 C45.86426174 192.44156417 45.86426174 192.44156417 30.3717041 200.98059082 C20.93592028 205.45085857 12.63155949 206.82659773 2.28186035 206.87902832 C1.17304001 206.88805679 0.06421967 206.89708527 -1.07820129 206.90638733 C-3.4103833 206.92083288 -5.74260531 206.92976231 -8.0748291 206.93347168 C-11.64346662 206.94543305 -15.21040984 206.99473122 -18.77868652 207.04504395 C-21.0501625 207.05450188 -23.32164903 207.06173992 -25.59313965 207.06652832 C-26.65779953 207.08606064 -27.72245941 207.10559296 -28.81938171 207.12571716 C-36.20846534 207.08057626 -36.20846534 207.08057626 -40.10412598 204.09802246 C-43.04971387 199.9791689 -43.54402087 197.62844858 -42.9564209 192.50793457 C-40.39487926 188.35273023 -37.45257099 185.43488785 -32.9564209 183.50793457 C-30.92129517 183.24964905 -30.92129517 183.24964905 -28.74206543 183.23669434 C-27.92086212 183.22650772 -27.09965881 183.21632111 -26.25357056 183.20582581 C-25.37433929 183.20368576 -24.49510803 183.20154572 -23.5892334 183.19934082 C-21.71553238 183.17418041 -19.84183453 183.14878239 -17.96813965 183.12316895 C-15.02332384 183.09444263 -12.0785632 183.07041635 -9.13366699 183.05163574 C-6.28523312 183.02993021 -3.4374432 182.99048759 -0.5892334 182.94934082 C0.7235408 182.9491671 0.7235408 182.9491671 2.06283569 182.94898987 C7.12652004 182.86736724 10.66490363 182.32867479 15.0435791 179.50793457 C17.93619238 176.23471428 19.29595624 173.70515105 19.4810791 169.38293457 C19.05135286 165.57678788 18.80795146 164.06753861 16.0435791 161.50793457 C12.16225464 160.21415975 8.48930524 160.37173452 4.44470215 160.38195801 C3.5663269 160.38008987 2.68795166 160.37822174 1.78295898 160.376297 C-0.12570718 160.37229211 -2.03437815 160.37021808 -3.94304848 160.3698349 C-8.00128743 160.36642065 -12.05936598 160.34506004 -16.11754894 160.32460403 C-23.67478223 160.28657358 -31.23184468 160.25532002 -38.78918457 160.25744629 C-44.04483969 160.25823334 -49.29990837 160.2348722 -54.55541039 160.19556427 C-56.55721589 160.1851015 -58.55908907 160.18358226 -60.56090736 160.19121552 C-63.36437022 160.20083874 -66.16605776 160.17965264 -68.96936035 160.15148926 C-69.79399277 160.16168594 -70.61862518 160.17188263 -71.46824646 160.18238831 C-77.30497637 160.07740675 -79.88515991 158.71589542 -83.9564209 154.50793457 C-85.38946154 151.64185328 -85.26286245 149.69492674 -84.9564209 146.50793457 C-82.44710667 141.68233028 -79.73190123 139.06125799 -74.9564209 136.50793457 C-71.70032137 135.9519621 -68.50339556 135.98418217 -65.20666504 136.0255127 C-64.24167587 136.02160019 -63.27668671 136.01768768 -62.28245544 136.01365662 C-60.19377863 136.00769288 -58.10506015 136.01083124 -56.01640511 136.02207947 C-52.70782722 136.03936085 -49.40012158 136.03182248 -46.09153748 136.01782227 C-37.87549202 135.9881922 -29.65961393 136.00135922 -21.44354248 136.01300049 C-14.49726013 136.02120855 -7.55135926 136.01324767 -0.60513115 135.98387146 C2.649429 135.97678579 5.90331472 135.99344497 9.15782166 136.01098633 C11.16002768 136.00527737 13.16223095 135.99845955 15.16442871 135.99035645 C16.06490936 136.00167099 16.96539001 136.01298553 17.89315796 136.02464294 C23.77315123 135.96787777 27.21163607 134.90893627 32.0435791 131.50793457 C34.1345922 128.63496367 34.39003944 126.02099447 34.4810791 122.50793457 C34.52104004 121.66230957 34.56100098 120.81668457 34.60217285 119.94543457 C34.21205597 117.36537021 34.21205597 117.36537021 32.19812012 115.38269043 C27.53510711 112.61144386 23.33874035 112.99960509 18.0123291 113.07434082 C15.81831797 113.06473701 13.62430757 113.05496629 11.43029785 113.04504395 C7.98050872 113.05365243 4.530905 113.07051589 1.08117676 113.09265137 C-2.25464422 113.10715907 -5.58938834 113.09192884 -8.9251709 113.07434082 C-10.47065613 113.09906212 -10.47065613 113.09906212 -12.04736328 113.12428284 C-19.22181308 113.07420432 -19.22181308 113.07420432 -23.08337402 110.09753418 C-25.84727265 106.2762786 -26.41248628 104.25101459 -25.9564209 99.50793457 C-23.61152215 95.07868138 -21.41831709 92.72449999 -16.9564209 90.50793457 C-14.24504089 90.14285278 -14.24504089 90.14285278 -11.2833252 90.15490723 C-10.16834152 90.15125153 -9.05335785 90.14759583 -7.90458679 90.14382935 C-6.70868423 90.15312469 -5.51278168 90.16242004 -4.28063965 90.17199707 C-1.73571523 90.15948357 0.80920666 90.14644641 3.35412598 90.13293457 C7.35674749 90.12900634 11.35910903 90.1323069 15.36169434 90.14758301 C19.23129355 90.15616887 23.0998526 90.13444109 26.96936035 90.10949707 C28.75410515 90.12951279 28.75410515 90.12951279 30.5749054 90.14993286 C37.66779977 90.0871057 42.61142898 89.27778249 48.0435791 84.50793457 C50.57002657 81.5077782 51.00093909 79.85514608 51.4810791 75.94543457 C50.9613253 71.86165472 50.23422595 70.99414238 47.0435791 68.50793457 C44.33996238 67.91618501 44.33996238 67.91618501 41.31922913 68.01586914 C39.56746872 68.00367088 39.56746872 68.00367088 37.78031921 67.9912262 C35.86404472 68.00819801 35.86404472 68.00819801 33.90905762 68.0255127 C32.54713551 68.02332634 31.18521528 68.01932884 29.82330322 68.01365662 C26.89249134 68.00509436 23.96204572 68.00887119 21.03125191 68.02207947 C16.39615516 68.04241515 11.76142767 68.03243942 7.12632751 68.01782227 C-3.55037323 67.98878612 -14.22696551 67.99951836 -24.90368652 68.01052094 C-34.68689246 68.02019531 -44.46990599 68.02147966 -54.253079 67.99064016 C-58.85983839 67.97726552 -63.46604458 67.98322761 -68.07277095 68.00400543 C-70.94000947 68.01299319 -73.80703486 68.00551587 -76.67425537 67.99359322 C-78.63540585 67.99044802 -80.5965566 68.00724677 -82.55763245 68.02464294 C-84.31362259 68.01244469 -84.31362259 68.01244469 -86.10508728 68 C-87.12031684 68.0015081 -88.1355464 68.0030162 -89.18154049 68.00457001 C-92.70739615 67.37352845 -94.39016385 65.95439932 -96.9564209 63.50793457 C-98.70093993 60.01889651 -98.53220762 56.31452456 -97.9564209 52.50793457 C-95.93220678 48.66192774 -92.9968138 46.07633921 -88.9564209 44.50793457 C-86.18802929 44.25739479 -86.18802929 44.25739479 -82.94181824 44.25637817 C-81.70955505 44.25099533 -80.47729187 44.24561249 -79.20768738 44.24006653 C-77.8448787 44.24408063 -76.48207047 44.24825155 -75.1192627 44.25256348 C-73.68177085 44.24981296 -72.24428052 44.24613269 -70.80679321 44.24159241 C-67.71239354 44.23348333 -64.61806611 44.23131123 -61.52365685 44.23353958 C-56.62763446 44.23637379 -51.73175627 44.2220162 -46.83576965 44.20455933 C-32.91385058 44.15754424 -18.99194122 44.13359551 -5.06994629 44.1270752 C2.62004565 44.12332159 10.30987452 44.10526762 17.99979657 44.07198083 C22.86351354 44.05178838 27.7268093 44.04938598 32.59055102 44.06026101 C35.6217986 44.06287343 38.65280242 44.04883823 41.68398666 44.03017998 C43.08557813 44.02487028 44.48721484 44.0263339 45.88878822 44.03521538 C56.17523885 44.12426108 56.17523885 44.12426108 65.0435791 39.50793457 C67.92056036 36.0055226 67.45417741 31.81921682 67.0435791 27.50793457 C64.67002655 24.87382978 63.18659327 24.52328276 59.64175415 24.14285278 C58.26938766 24.13169043 56.89682906 24.1368376 55.52453613 24.15490723 C54.77281128 24.15274704 54.02108643 24.15058685 53.24658203 24.14836121 C51.61731034 24.14527778 49.98801535 24.14886965 48.35876846 24.15837479 C45.77736511 24.17212505 43.19672953 24.16566878 40.61532593 24.15353394 C33.27739415 24.12258873 25.93964104 24.12743441 18.60168457 24.14758301 C14.10999913 24.15851392 9.6188904 24.14528158 5.127285 24.11768723 C3.41852043 24.11225414 1.70969791 24.11629155 0.00098038 24.13008499 C-2.39284649 24.14918246 -4.78479328 24.13770636 -7.17858887 24.11975098 C-8.23084152 24.13975914 -8.23084152 24.13975914 -9.30435181 24.16017151 C-14.8881051 24.06734227 -17.16734835 22.31226699 -20.9564209 18.50793457 C-22.38946154 15.64185328 -22.26286245 13.69492674 -21.9564209 10.50793457 C-16.7482451 0.49221188 -10.37201882 -0.08160929 0 0 Z " fill="#030203" transform="translate(182.9564208984375,73.4920654296875)"/>
<path d="M0 0 C1.30858223 -0.01051392 1.30858223 -0.01051392 2.64360046 -0.02124023 C5.51761042 -0.03879385 8.39062903 -0.02720274 11.26464844 -0.01367188 C13.27236112 -0.01636852 15.28007253 -0.02025238 17.28778076 -0.02526855 C21.49422651 -0.03116087 25.70033214 -0.02261273 29.90673828 -0.00390625 C35.27770372 0.01882413 40.64786696 0.0057959 46.01880264 -0.01819611 C50.16603539 -0.03271152 54.31308085 -0.02802082 58.46031952 -0.01768494 C60.43930915 -0.01503044 62.41831619 -0.0182421 64.39728546 -0.02760315 C87.04059276 -0.1111762 87.04059276 -0.1111762 94.78808594 6.94335938 C98.53542625 12.18799941 101.44200603 18.04255029 104.49902344 23.70507812 C105.20578868 25.00203893 105.9133214 26.29858177 106.62158203 27.59472656 C108.07849188 30.26160196 109.53276092 32.92989094 110.98535156 35.59912109 C114.20527519 41.5078226 117.4770019 47.38759211 120.74902344 53.26757812 C121.35625244 54.36110596 121.96348145 55.45463379 122.58911133 56.58129883 C125.74443311 62.25953517 128.91463611 67.9290102 132.10449219 73.58789062 C132.74757324 74.73032227 133.3906543 75.87275391 134.05322266 77.04980469 C135.27735476 79.22258362 136.5040998 81.39389323 137.73388672 83.56347656 C138.28157715 84.53575195 138.82926758 85.50802734 139.39355469 86.50976562 C139.8741333 87.35909668 140.35471191 88.20842773 140.84985352 89.08349609 C147.1817411 101.17947601 143.71772693 114.63585075 141.12402344 127.39257812 C140.83375755 128.87020682 140.54468862 130.34807117 140.25683594 131.82617188 C139.5596163 135.39278527 138.84646307 138.95597633 138.12402344 142.51757812 C139.29964844 142.70320313 139.29964844 142.70320313 140.49902344 142.89257812 C143.12402344 143.51757812 143.12402344 143.51757812 145.12402344 145.51757812 C145.7374356 152.04286115 144.15673839 158.28267933 142.81152344 164.64257812 C142.59818359 165.71378906 142.38484375 166.785 142.16503906 167.88867188 C141.94912109 168.92378906 141.73320313 169.95890625 141.51074219 171.02539062 C141.22009888 172.42748779 141.22009888 172.42748779 140.92358398 173.85791016 C139.64060169 178.12563813 138.26874623 180.707587 134.58837891 183.31176758 C129.87613373 184.95192113 125.64672695 184.89098105 120.69433594 184.81054688 C119.7040036 184.80630203 118.71367126 184.80205719 117.69332886 184.79768372 C114.54494499 184.78095434 111.3972123 184.74331232 108.24902344 184.70507812 C106.10840771 184.69002389 103.96778191 184.67633677 101.82714844 184.6640625 C96.59255303 184.63106972 91.35833477 184.58092769 86.12402344 184.51757812 C86.07068848 183.35419922 86.01735352 182.19082031 85.96240234 180.9921875 C85.88381289 179.44854988 85.8048546 177.90493101 85.72558594 176.36132812 C85.69150635 175.5965918 85.65742676 174.83185547 85.62231445 174.04394531 C85.08030444 163.8607269 81.38317502 155.7767297 74.12402344 148.51757812 C63.73920801 140.40111829 52.02680514 138.4749291 39.12402344 139.51757812 C26.53130919 141.39942832 15.64212673 147.19846071 6.12402344 155.51757812 C5.52074219 156.02675781 4.91746094 156.5359375 4.29589844 157.06054688 C-3.80117627 164.44639205 -8.74771397 174.16285418 -11.87597656 184.51757812 C-16.60817418 184.61684966 -21.33975869 184.68923445 -26.07275391 184.73730469 C-27.68093431 184.75735439 -29.2890424 184.78460176 -30.89697266 184.81933594 C-33.21567676 184.86815076 -35.53341281 184.89061241 -37.85253906 184.90820312 C-38.56527985 184.92884827 -39.27802063 184.94949341 -40.01235962 184.97076416 C-45.10413559 184.9730256 -47.96280843 183.72719667 -51.87597656 180.51757812 C-55.23399151 173.80154822 -52.24496307 164.08305302 -50.75097656 157.14257812 C-50.52579346 156.05952393 -50.30061035 154.97646973 -50.06860352 153.8605957 C-49.34798591 150.4106729 -48.61274211 146.96408468 -47.87597656 143.51757812 C-47.4133277 141.32104971 -46.95108478 139.12443575 -46.48925781 136.92773438 C-44.37255426 126.91723063 -42.19619542 116.92042513 -39.96191406 106.93554688 C-39.71488991 105.83138176 -39.71488991 105.83138176 -39.46287537 104.70491028 C-38.01050327 98.21418427 -38.01050327 98.21418427 -37.4256897 95.60293579 C-34.75949603 83.68265194 -32.24939946 71.73649908 -29.8192749 59.76608276 C-27.25880908 47.1708904 -24.4551489 34.64222655 -21.48388672 22.13696289 C-20.73370141 18.90453792 -20.05118679 15.65942423 -19.38989258 12.40771484 C-18.19386531 8.0088345 -15.73199215 5.22454311 -12.2901001 2.38195801 C-7.96869864 0.02213305 -4.83536503 -0.04811934 0 0 Z " fill="#020202" transform="translate(498.8759765625,97.482421875)"/>
<path d="M0 0 C1.16155609 -0.0127597 2.32311218 -0.02551941 3.51986694 -0.03866577 C4.77095245 -0.04089142 6.02203796 -0.04311707 7.31103516 -0.04541016 C8.60071198 -0.05206696 9.89038879 -0.05872375 11.21914673 -0.06558228 C13.94772692 -0.07754389 16.67618061 -0.08126429 19.40478516 -0.08007812 C22.89073455 -0.07987505 26.37586766 -0.10716906 29.86162376 -0.14162254 C33.19893925 -0.16929136 36.53610653 -0.1680421 39.87353516 -0.17041016 C41.1205722 -0.18478119 42.36760925 -0.19915222 43.6524353 -0.21395874 C54.51700114 -0.15671518 54.51700114 -0.15671518 59.22509766 4.29052734 C60.87304688 6.20385742 60.87304688 6.20385742 62.15478516 8.24755859 C62.65075195 9.03727051 63.14671875 9.82698242 63.65771484 10.640625 C66.65110431 15.70141149 69.52247825 20.82301709 72.35009766 25.97802734 C73.33418991 27.7703807 74.3185059 29.56261099 75.30290222 31.35479736 C75.9669118 32.56406943 76.63033406 33.77366419 77.29316711 34.98358154 C79.4396479 38.89302397 81.63882194 42.76816051 83.86962891 46.63037109 C84.4269873 47.60981689 84.9843457 48.5892627 85.55859375 49.59838867 C86.59754473 51.42311551 87.65044309 53.23999989 88.71972656 55.04711914 C91.40787319 59.82340463 92.79290083 63.68382629 92.89135742 69.18066406 C91.78768373 72.67569817 90.12601852 74.05341219 87.22509766 76.29052734 C83.68972308 77.03429098 80.20928627 76.96349791 76.60742188 76.92163086 C75.00421585 76.93236382 75.00421585 76.93236382 73.36862183 76.9433136 C69.83857387 76.96021196 66.30979354 76.94079248 62.77978516 76.91943359 C60.32788996 76.92026206 57.87599482 76.92272057 55.42410278 76.92674255 C50.2877733 76.9296012 45.15187973 76.9148898 40.015625 76.88745117 C33.42319925 76.8533331 26.83155128 76.85939831 20.23908806 76.87811375 C15.17767826 76.88866683 10.11645039 76.8797618 5.05505753 76.86472893 C2.62371485 76.85953668 0.19235326 76.86004149 -2.23898697 76.86627388 C-5.63174776 76.87170685 -9.02338299 76.8514124 -12.41601562 76.82397461 C-13.42595581 76.83050049 -14.435896 76.83702637 -15.47644043 76.84375 C-16.39889557 76.83102554 -17.32135071 76.81830109 -18.27175903 76.80519104 C-19.07367739 76.80238412 -19.87559574 76.7995772 -20.70181465 76.79668522 C-22.77490234 76.29052734 -22.77490234 76.29052734 -24.52979851 74.38117886 C-29.32548671 66.3287478 -24.03125506 53.38549866 -22.02490234 44.85302734 C-21.46602485 42.4318051 -20.91023151 40.00988957 -20.35479736 37.58787537 C-19.99112346 36.00291619 -19.62618841 34.41824582 -19.25994873 32.83387756 C-18.26882117 28.52907179 -17.33478298 24.221536 -16.49365234 19.88427734 C-16.32317383 19.00827881 -16.15269531 18.13228027 -15.97705078 17.22973633 C-15.68754504 15.70795536 -15.40854391 14.18411513 -15.14306641 12.65795898 C-14.289834 8.23710788 -12.95608912 5.48912938 -9.77490234 2.29052734 C-6.48519419 0.2190073 -3.85210197 0.02875865 0 0 Z " fill="#FBFBFB" transform="translate(520.77490234375,113.70947265625)"/>
<path d="M0 0 C6.15354969 3.63500826 10.7704146 10.52811499 12.65625 17.38671875 C14.66424492 32.65204374 11.51093469 45.05077112 2.1875 57.25 C-5.8756109 66.88051938 -17.54772428 73.82127073 -30 76 C-38.96533302 76.74183381 -47.13765293 76.94251279 -55 72 C-55.93199219 71.49146484 -55.93199219 71.49146484 -56.8828125 70.97265625 C-63.36263495 67.03146554 -66.54268816 60.51079671 -69.375 53.6875 C-71.4841833 41.24331853 -69.88305632 29.38872079 -62.8125 18.75 C-47.89976913 -0.69318075 -23.31801761 -13.58331123 0 0 Z " fill="#030303" transform="translate(309,250)"/>
<path d="M0 0 C6.05228716 4.89487766 11.34140871 10.33824852 12.8125 18.25 C13.86669005 33.510656 11.13915577 46.10922007 1.0625 58.0625 C-8.39924719 67.95351361 -20.86319778 74.53757643 -34.640625 75.48828125 C-42.31214887 75.63823902 -48.53590852 75.45788302 -55.1875 71.25 C-56.24904297 70.59644531 -56.24904297 70.59644531 -57.33203125 69.9296875 C-64.69814002 64.92783999 -68.12713184 58.83336777 -70.1875 50.25 C-71.55628353 36.3748575 -68.60246384 25.87989295 -60.171875 14.62109375 C-46.03754414 -2.26776222 -20.07761017 -14.14129229 0 0 Z " fill="#030304" transform="translate(563.1875,250.75)"/>
<path d="M0 0 C0.97431473 -0.01279495 1.94862946 -0.0255899 2.95246887 -0.03877258 C4.01491821 -0.03741302 5.07736755 -0.03605347 6.17201233 -0.03465271 C7.29597916 -0.04472855 8.41994598 -0.05480438 9.57797241 -0.06518555 C13.2983033 -0.0937135 17.01822922 -0.09954445 20.73866272 -0.10276794 C23.32171802 -0.11240493 25.90477167 -0.12249709 28.48782349 -0.13302612 C33.90408318 -0.15099915 39.32018184 -0.15667424 44.73646545 -0.1547699 C50.99313549 -0.15296715 57.24902987 -0.18463318 63.50550359 -0.23200089 C69.52944 -0.27597954 75.55295563 -0.28673358 81.57707405 -0.28494072 C84.13798251 -0.28848507 86.69889649 -0.30177833 89.25970268 -0.32493782 C92.83920355 -0.35428166 96.416699 -0.34573039 99.99623108 -0.32762146 C101.05665619 -0.34447998 102.1170813 -0.3613385 103.2096405 -0.37870789 C110.20926891 -0.2885672 110.20926891 -0.2885672 112.93136787 1.70967293 C114.78580044 3.84870892 116.02718257 5.76051992 116.55897522 8.56129456 C115.7211 13.14607244 114.64736751 16.0917005 111.14881897 19.40113831 C105.64298098 22.99926444 100.61950297 22.83935382 94.26576233 22.82106018 C92.63789543 22.8337645 92.63789543 22.8337645 90.97714233 22.84672546 C87.39752927 22.87008444 83.81834616 22.87111804 80.23866272 22.86988831 C77.74814685 22.87698914 75.25763262 22.88468802 72.76712036 22.89295959 C67.55112659 22.9064009 62.33528419 22.90797404 57.11927795 22.90211487 C51.7619842 22.89620271 46.40518414 22.91033454 41.04798889 22.94313049 C34.57654184 22.98221655 28.10551941 22.99693505 21.63395882 22.99234009 C19.16796101 22.99403487 16.70195539 23.00371157 14.23602104 23.02148438 C10.79101167 23.04358651 7.34748481 23.03401597 3.90248108 23.01637268 C2.37266098 23.03626755 2.37266098 23.03626755 0.81193542 23.05656433 C-3.93459925 23.00000079 -6.114632 22.97279499 -9.96078491 19.98768616 C-12.74853477 16.17332771 -13.30787302 14.15073495 -12.85118103 9.40113831 C-9.71385744 3.68672749 -6.73136583 0.0400384 0 0 Z " fill="#010101" transform="translate(25.851181030273438,163.59886169433594)"/>
<path d="M0 0 C5.45262832 2.46911471 8.72863994 6.5390705 11 12 C12.12559879 17.60841831 11.04708537 22.32535816 8.27734375 27.2734375 C5.60171781 30.89003281 2.17305926 32.60898025 -2 34 C-7.57210746 34.4127487 -8.94778472 34.03132917 -14 31 C-14.33 35.29 -14.66 39.58 -15 44 C-17.97 44 -20.94 44 -24 44 C-24 29.81 -24 15.62 -24 1 C-21.03 1 -18.06 1 -15 1 C-14.67 1.66 -14.34 2.32 -14 3 C-13.44054687 2.51402344 -12.88109375 2.02804687 -12.3046875 1.52734375 C-8.42265121 -1.04532776 -4.49502321 -0.61975756 0 0 Z " fill="#090909" transform="translate(468,381)"/>
<path d="M0 0 C2.97 0 5.94 0 9 0 C9 0.99 9 1.98 9 3 C9.66 2.505 10.32 2.01 11 1.5 C14.7315915 -0.36579575 17.93625742 -0.62151357 22 0 C25.3125 1.5 25.3125 1.5 28 3 C31.02067791 3.29408585 31.02067791 3.29408585 33.0625 1.5 C37.37158604 -0.70038436 41.26111819 -0.93598443 46 0 C49.4285785 2.02008139 52.20847086 4.41694171 54 8 C54.084915 9.8863912 54.107193 11.77578515 54.09765625 13.6640625 C54.09443359 14.78554688 54.09121094 15.90703125 54.08789062 17.0625 C54.07532227 18.8259375 54.07532227 18.8259375 54.0625 20.625 C54.05798828 21.80835938 54.05347656 22.99171875 54.04882812 24.2109375 C54.03701467 27.14067507 54.02054258 30.07031272 54 33 C51.03 33 48.06 33 45 33 C44.970271 32.01604248 44.970271 32.01604248 44.93994141 31.01220703 C44.84487493 28.04938931 44.73512248 25.08729468 44.625 22.125 C44.5940625 21.09246094 44.563125 20.05992187 44.53125 18.99609375 C44.47324219 17.51689453 44.47324219 17.51689453 44.4140625 16.0078125 C44.3826416 15.09660645 44.3512207 14.18540039 44.31884766 13.24658203 C44.20117489 10.80068814 44.20117489 10.80068814 42 9 C38.54213985 8.49992206 38.54213985 8.49992206 35 9 C32.26040915 11.79616291 31.61187694 13.90943959 31.48828125 17.765625 C31.45283203 18.65507812 31.41738281 19.54453125 31.38085938 20.4609375 C31.35830078 21.38132812 31.33574219 22.30171875 31.3125 23.25 C31.27833984 24.18585938 31.24417969 25.12171875 31.20898438 26.0859375 C31.12667838 28.39050533 31.0574737 30.69470119 31 33 C28.36 33 25.72 33 23 33 C22.98541748 32.37955811 22.97083496 31.75911621 22.95581055 31.11987305 C22.88133412 28.30845367 22.78467436 25.49822251 22.6875 22.6875 C22.66494141 21.71103516 22.64238281 20.73457031 22.61914062 19.72851562 C22.5659668 18.32182617 22.5659668 18.32182617 22.51171875 16.88671875 C22.48553467 16.02264404 22.45935059 15.15856934 22.43237305 14.26831055 C21.91354836 11.5464584 21.21431984 10.62914639 19 9 C14.91212523 8.46893986 14.91212523 8.46893986 11.34448242 10.21801758 C9.59797106 12.53285078 9.57562386 14.00441265 9.48828125 16.88671875 C9.45283203 17.82451172 9.41738281 18.76230469 9.38085938 19.72851562 C9.34702148 21.19321289 9.34702148 21.19321289 9.3125 22.6875 C9.27833984 23.67556641 9.24417969 24.66363281 9.20898438 25.68164062 C9.12650431 28.12069399 9.06157567 30.56032939 9 33 C6.03 33 3.06 33 0 33 C0 22.11 0 11.22 0 0 Z " fill="#0B0B0B" transform="translate(486,381)"/>
<path d="M0 0 C3.15546892 1.43536063 5.42454311 2.86928995 7.80859375 5.40234375 C9.55974396 10.43690059 9.9243693 15.46558936 7.9296875 20.4921875 C4.5444873 26.31294429 -0.06133287 30.84272678 -6.19140625 33.65234375 C-11.31347853 34.71944214 -14.74127614 35.05818304 -19.44140625 32.52734375 C-24.14921332 28.6755016 -25.94441403 25.70610061 -26.56640625 19.58984375 C-26.46910324 13.6976057 -23.4882012 9.59464579 -19.44140625 5.51171875 C-13.55467543 0.28470776 -7.94782189 -2.62093948 0 0 Z " fill="#F6F7F7" transform="translate(289.19140625,268.72265625)"/>
<path d="M0 0 C3.15546892 1.43536063 5.42454311 2.86928995 7.80859375 5.40234375 C9.56544301 10.45328537 9.93751646 15.49845709 7.89453125 20.52734375 C4.28796048 26.67014816 -0.36795347 30.97606144 -7.19140625 33.27734375 C-11.55834478 33.88121443 -16.10872974 34.27340643 -20.16796875 32.33203125 C-23.37815179 29.81765143 -25.2755484 27.21553252 -26.19140625 23.27734375 C-26.77521963 17.24460554 -26.10781287 13.10757858 -22.19140625 8.27734375 C-15.75129903 1.78444876 -9.49931695 -3.13257332 0 0 Z " fill="#F8F8F8" transform="translate(543.19140625,268.72265625)"/>
<path d="M0 0 C0.66 0.33 1.32 0.66 2 1 C1.67 3.64 1.34 6.28 1 9 C0.071875 8.67 -0.85625 8.34 -1.8125 8 C-6.77211034 6.56405532 -11.87875313 6.61900759 -17 7 C-18.29633621 8.06645115 -18.29633621 8.06645115 -18.0625 10.5625 C-18.041875 11.366875 -18.02125 12.17125 -18 13 C-17.46632813 13.17015625 -16.93265625 13.3403125 -16.3828125 13.515625 C-12.10157329 14.90813879 -7.84452021 16.36759027 -3.625 17.9375 C-2.81289063 18.23527344 -2.00078125 18.53304688 -1.1640625 18.83984375 C1.43927409 20.23549531 2.54335524 21.43593761 4 24 C4.84166886 28.66330042 4.66948728 32.74136392 2.4375 36.9375 C-3.36520543 41.84748152 -8.54183253 42.5354862 -15.984375 42.3671875 C-20.47669058 41.82019571 -24.08124139 40.18782712 -28 38 C-28.66 37.67 -29.32 37.34 -30 37 C-29.1875 34.0625 -29.1875 34.0625 -28 31 C-26.515 30.505 -26.515 30.505 -25 30 C-24.175 30.474375 -23.35 30.94875 -22.5 31.4375 C-17.68001832 33.58927754 -13.21210224 33.44285836 -8 33 C-7.01 32.505 -7.01 32.505 -6 32 C-6 30.35 -6 28.7 -6 27 C-6.54527344 26.81824219 -7.09054687 26.63648438 -7.65234375 26.44921875 C-9.24062807 25.91979064 -10.82779113 25.38699164 -12.4140625 24.8515625 C-14.08824169 24.30024669 -15.77045545 23.7725322 -17.4609375 23.2734375 C-25.59001513 20.81580938 -25.59001513 20.81580938 -28 17 C-29.37525696 12.25898257 -29.54520205 9.0904041 -27.3125 4.625 C-20.30962089 -3.32421412 -9.6300287 -4.30817073 0 0 Z " fill="#0D0E0E" transform="translate(372,373)"/>
<path d="M0 0 C4.01215279 2.33058875 7.01099935 4.60907917 8.6875 9.046875 C9.1825 13.996875 9.1825 13.996875 9.6875 19.046875 C1.7675 19.046875 -6.1525 19.046875 -14.3125 19.046875 C-12.8125 23.046875 -12.8125 23.046875 -10.3125 24.046875 C-6.307144 24.18038687 -2.92497092 24.17399161 1 23.359375 C3.6875 23.046875 3.6875 23.046875 5.5625 24.484375 C6.119375 25.2578125 6.119375 25.2578125 6.6875 26.046875 C5.70074263 28.73803146 5.10413506 29.83482418 2.5078125 31.15625 C-3.80195109 33.14880692 -10.89392755 33.19251458 -16.875 30.359375 C-21.39795638 26.0683651 -24.43353791 22.7318562 -24.6875 16.421875 C-24.61461294 10.81767012 -23.06897141 7.18471406 -19.3125 3.046875 C-13.93756872 -1.78237798 -6.66322473 -2.74632911 0 0 Z " fill="#0E0E0E" transform="translate(242.3125,381.953125)"/>
<path d="M0 0 C3.96670117 2.34329199 7.08970371 4.60873698 8.671875 9.05859375 C8.671875 12.35859375 8.671875 15.65859375 8.671875 19.05859375 C1.081875 19.38859375 -6.508125 19.71859375 -14.328125 20.05859375 C-10.9913204 24.1403383 -10.9913204 24.1403383 -8.14453125 24.484375 C-7.02884766 24.42830078 -7.02884766 24.42830078 -5.890625 24.37109375 C-5.10558594 24.34015625 -4.32054687 24.30921875 -3.51171875 24.27734375 C-1.19362688 24.09454835 -1.19362688 24.09454835 1.546875 23.37109375 C2.248125 23.26796875 2.949375 23.16484375 3.671875 23.05859375 C5.484375 24.49609375 5.484375 24.49609375 6.671875 26.05859375 C5.69305987 28.72808957 5.08986919 29.84275675 2.5234375 31.16796875 C-4.02003991 33.21168498 -11.63255982 33.17400003 -17.953125 30.55859375 C-22.18353334 26.10553233 -24.51057924 21.69882084 -24.828125 15.49609375 C-24.53101016 9.55379703 -22.13842531 5.73643306 -17.765625 1.68359375 C-12.54767831 -1.79503738 -5.8329351 -2.35861973 0 0 Z " fill="#0F0F0F" transform="translate(571.328125,381.94140625)"/>
<path d="M0 0 C2.97 0 5.94 0 9 0 C9 4.95 9 9.9 9 15 C10.65 14.01 12.3 13.02 14 12 C18.29046576 11.11017672 22.32560889 11.01346686 26.16796875 13.27734375 C28.60829293 15.33526661 30.56498838 17.12997677 32 20 C32.084915 21.8863912 32.107193 23.77578515 32.09765625 25.6640625 C32.09443359 26.78554688 32.09121094 27.90703125 32.08789062 29.0625 C32.07532227 30.8259375 32.07532227 30.8259375 32.0625 32.625 C32.05798828 33.80835938 32.05347656 34.99171875 32.04882812 36.2109375 C32.03701467 39.14067507 32.02054258 42.07031272 32 45 C29.03 45 26.06 45 23 45 C22.98541748 44.34402832 22.97083496 43.68805664 22.95581055 43.01220703 C22.88148586 40.04919969 22.78477631 37.08733883 22.6875 34.125 C22.66494141 33.09246094 22.64238281 32.05992187 22.61914062 30.99609375 C22.58369141 30.00996094 22.54824219 29.02382813 22.51171875 28.0078125 C22.48553467 27.09660645 22.45935059 26.18540039 22.43237305 25.24658203 C22.28968994 24.50520996 22.14700684 23.76383789 22 23 C18.53076119 20.68717413 17.07794425 20.57521414 13 21 C10.96332385 22.54506466 10.13926922 23.72146156 9 26 C8.84932786 27.4465242 8.75138964 28.8987934 8.68359375 30.3515625 C8.64169922 31.20234375 8.59980469 32.053125 8.55664062 32.9296875 C8.51732422 33.81914062 8.47800781 34.70859375 8.4375 35.625 C8.39431641 36.5221875 8.35113281 37.419375 8.30664062 38.34375 C8.20043139 40.56234283 8.09838806 42.7810488 8 45 C5.36 45 2.72 45 0 45 C0 30.15 0 15.3 0 0 Z " fill="#080808" transform="translate(384,369)"/>
<path d="M0 0 C10.56 0 21.12 0 32 0 C32 2.31 32 4.62 32 7 C24.74 7 17.48 7 10 7 C10 10.96 10 14.92 10 19 C16.6 19 23.2 19 30 19 C30 21.64 30 24.28 30 27 C23.4 27 16.8 27 10 27 C10 31.95 10 36.9 10 42 C6.7 42 3.4 42 0 42 C0 28.14 0 14.28 0 0 Z " fill="#101011" transform="translate(122,372)"/>
<path d="M0 0 C3.4285785 2.02008139 6.20847086 4.41694171 8 8 C8.084915 9.8863912 8.107193 11.77578515 8.09765625 13.6640625 C8.09443359 14.78554688 8.09121094 15.90703125 8.08789062 17.0625 C8.07532227 18.8259375 8.07532227 18.8259375 8.0625 20.625 C8.05798828 21.80835938 8.05347656 22.99171875 8.04882812 24.2109375 C8.03701467 27.14067507 8.02054258 30.07031272 8 33 C5.03 33 2.06 33 -1 33 C-1.01458252 32.34402832 -1.02916504 31.68805664 -1.04418945 31.01220703 C-1.11851414 28.04919969 -1.21522369 25.08733883 -1.3125 22.125 C-1.33505859 21.09246094 -1.35761719 20.05992187 -1.38085938 18.99609375 C-1.41630859 18.00996094 -1.45175781 17.02382813 -1.48828125 16.0078125 C-1.51446533 15.09660645 -1.54064941 14.18540039 -1.56762695 13.24658203 C-1.71031006 12.50520996 -1.85299316 11.76383789 -2 11 C-5.70415293 8.53056471 -7.62144505 8.53086911 -12 9 C-14.73633286 11.79930535 -15.3880995 13.90870429 -15.51171875 17.765625 C-15.54716797 18.65507812 -15.58261719 19.54453125 -15.61914062 20.4609375 C-15.65297852 21.84152344 -15.65297852 21.84152344 -15.6875 23.25 C-15.72166016 24.18585938 -15.75582031 25.12171875 -15.79101562 26.0859375 C-15.87331102 28.39020846 -15.93833713 30.69508463 -16 33 C-18.97 33 -21.94 33 -25 33 C-25 22.44 -25 11.88 -25 1 C-22.03 1 -19.06 1 -16 1 C-15.67 1.66 -15.34 2.32 -15 3 C-14.38125 2.505 -13.7625 2.01 -13.125 1.5 C-8.69983702 -0.62407823 -4.8202529 -0.95205617 0 0 Z " fill="#0D0D0D" transform="translate(612,381)"/>
<path d="M0 0 C2.97 0 5.94 0 9 0 C9 10.89 9 21.78 9 33 C6.36 33 3.72 33 1 33 C1 32.01 1 31.02 1 30 C0.29875 30.48597656 -0.4025 30.97195313 -1.125 31.47265625 C-5.90463402 34.01183682 -10.7196745 33.65821232 -16 33 C-20.23560777 30.7127718 -21.51935182 28.46738941 -23 24 C-23.22705078 21.32104492 -23.22705078 21.32104492 -23.1953125 18.48046875 C-23.18564453 16.9480957 -23.18564453 16.9480957 -23.17578125 15.38476562 C-23.15902344 14.32966797 -23.14226562 13.27457031 -23.125 12.1875 C-23.11597656 11.11306641 -23.10695312 10.03863281 -23.09765625 8.93164062 C-23.07415306 6.28753146 -23.04129575 3.64388128 -23 1 C-20.03 1 -17.06 1 -14 1 C-13.96261719 2.48113281 -13.92523438 3.96226562 -13.88671875 5.48828125 C-13.82106646 7.42971314 -13.75461887 9.37111826 -13.6875 11.3125 C-13.66494141 12.28896484 -13.64238281 13.26542969 -13.61914062 14.27148438 C-13.58369141 15.20927734 -13.54824219 16.14707031 -13.51171875 17.11328125 C-13.48553467 17.97735596 -13.45935059 18.84143066 -13.43237305 19.73168945 C-12.91198555 22.46174041 -12.26397552 23.41080361 -10 25 C-6.42243314 25.00082535 -6.42243314 25.00082535 -3 24 C-0.87719437 20.81579155 -0.71980463 19.79462745 -0.5859375 16.11328125 C-0.54726562 15.17548828 -0.50859375 14.23769531 -0.46875 13.27148438 C-0.42234375 11.80678711 -0.42234375 11.80678711 -0.375 10.3125 C-0.33632812 9.32443359 -0.29765625 8.33636719 -0.2578125 7.31835938 C-0.16354601 4.8792139 -0.0806841 2.43963253 0 0 Z " fill="#09090A" transform="translate(202,381)"/>
<path d="M0 0 C4.15274264 1.43748784 6.79446374 3.21990455 9.18847656 6.95361328 C10.99092213 11.49876935 10.39719568 16.56849478 10.25 21.375 C10.23195313 22.49261719 10.21390625 23.61023438 10.1953125 24.76171875 C10.14835555 27.5087003 10.08269468 30.25390047 10 33 C7.03 33 4.06 33 1 33 C0.96261719 31.51886719 0.92523438 30.03773438 0.88671875 28.51171875 C0.82106646 26.57028686 0.75461887 24.62888174 0.6875 22.6875 C0.66494141 21.71103516 0.64238281 20.73457031 0.61914062 19.72851562 C0.5659668 18.32182617 0.5659668 18.32182617 0.51171875 16.88671875 C0.48553467 16.02264404 0.45935059 15.15856934 0.43237305 14.26831055 C-0.08631276 11.547187 -0.79142851 10.63398379 -3 9 C-6.40644124 8.49265769 -8.22711651 8.50023017 -11.14453125 10.38671875 C-14.00358347 14.41346808 -13.67563991 18.42335391 -13.75 23.25 C-13.77964844 24.18585938 -13.80929687 25.12171875 -13.83984375 26.0859375 C-13.91039804 28.39071092 -13.96316252 30.69448168 -14 33 C-16.64 33 -19.28 33 -22 33 C-22 22.44 -22 11.88 -22 1 C-19.36 1 -16.72 1 -14 1 C-13.67 1.66 -13.34 2.32 -13 3 C-12.34 2.505 -11.68 2.01 -11 1.5 C-7.24846134 -0.37576933 -4.08005524 -0.57713944 0 0 Z " fill="#070707" transform="translate(281,381)"/>
<path d="M0 0 C2.97 0 5.94 0 9 0 C9 2.64 9 5.28 9 8 C11.97 8 14.94 8 18 8 C18 10.31 18 12.62 18 15 C15.03 15 12.06 15 9 15 C9.33 20.28 9.66 25.56 10 31 C14.47702364 32.06537205 14.47702364 32.06537205 17 32 C18.4606285 34.64738916 19 35.89448334 19 39 C15.04603037 40.97698481 10.29880647 40.57069292 6 40 C3.10316132 37.7984026 1.60702769 36.21405538 0 33 C-0.08308638 31.62451844 -0.10736016 30.24514204 -0.09765625 28.8671875 C-0.09443359 28.06152344 -0.09121094 27.25585938 -0.08789062 26.42578125 C-0.07951172 25.58402344 -0.07113281 24.74226563 -0.0625 23.875 C-0.05798828 23.02550781 -0.05347656 22.17601562 -0.04882812 21.30078125 C-0.03702874 19.20049091 -0.01909306 17.1002367 0 15 C-1.65 15 -3.3 15 -5 15 C-5 12.69 -5 10.38 -5 8 C-3.35 8 -1.7 8 0 8 C0 5.36 0 2.72 0 0 Z " fill="#0B0B0B" transform="translate(630,374)"/>
<path d="M0 0 C2.97 0 5.94 0 9 0 C9 2.64 9 5.28 9 8 C11.64 8 14.28 8 17 8 C17 10.31 17 12.62 17 15 C14.36 15 11.72 15 9 15 C9.33 20.28 9.66 25.56 10 31 C14.47702364 32.06537205 14.47702364 32.06537205 17 32 C17.66 34.31 18.32 36.62 19 39 C16.31432703 40.34283649 14.12253147 40.24287519 11.125 40.3125 C9.55105469 40.36857422 9.55105469 40.36857422 7.9453125 40.42578125 C4.30771068 39.89992104 3.22138811 38.86714047 1 36 C0.07811539 33.23434618 -0.11785222 31.61716298 -0.09765625 28.76953125 C-0.09282227 27.56586914 -0.09282227 27.56586914 -0.08789062 26.33789062 C-0.07951172 25.50451172 -0.07113281 24.67113281 -0.0625 23.8125 C-0.05798828 22.96751953 -0.05347656 22.12253906 -0.04882812 21.25195312 C-0.03705403 19.16793845 -0.0191189 17.08396023 0 15 C-1.65 15 -3.3 15 -5 15 C-5 12.69 -5 10.38 -5 8 C-3.35 8 -1.7 8 0 8 C0 5.36 0 2.72 0 0 Z " fill="#080808" transform="translate(301,374)"/>
<path d="M0 0 C2.97 0 5.94 0 9 0 C9 14.85 9 29.7 9 45 C6.03 45 3.06 45 0 45 C0 30.15 0 15.3 0 0 Z " fill="#060606" transform="translate(161,369)"/>
<path d="M0 0 C2.97 0 5.94 0 9 0 C9 10.89 9 21.78 9 33 C5.7 33 2.4 33 -1 33 C-1.02465392 28.46102295 -1.04283789 23.92208457 -1.05493164 19.38305664 C-1.0599714 17.83780234 -1.0668032 16.29255284 -1.07543945 14.74731445 C-1.08752076 12.53074971 -1.09323173 10.31424782 -1.09765625 8.09765625 C-1.10281754 7.4028566 -1.10797882 6.70805695 -1.11329651 5.99220276 C-1.11349277 4.3277067 -1.06189129 2.66334501 -1 1 C-0.67 0.67 -0.34 0.34 0 0 Z " fill="#1C1C1C" transform="translate(426,381)"/>
<path d="M0 0 C3 2.0625 3 2.0625 5 5 C5.50951861 9.14893725 5.54666957 12.56199608 3 16 C-0.2199566 18.299969 -3.12281308 18.40387364 -7 18 C-10.1359157 16.22015595 -10.84102736 15.47691793 -12 12 C-12.56074766 4.93457944 -12.56074766 4.93457944 -10.5 1.5 C-7.01093127 -0.59344124 -3.90090099 -0.88059943 0 0 Z " fill="#F5F6F5" transform="translate(465,389)"/>
<path d="M0 0 C2.73156959 -0.16262928 5.45342122 -0.28110686 8.1875 -0.375 C8.95642578 -0.42527344 9.72535156 -0.47554688 10.51757812 -0.52734375 C16.17663452 -0.67307052 16.17663452 -0.67307052 18.66650391 1.36230469 C20.05078125 3.0234375 20.05078125 3.0234375 22 6 C19 6 19 6 17 5.4375 C14.80883384 4.77947007 14.80883384 4.77947007 12 6 C4.86311531 6.45313554 4.86311531 6.45313554 1.5 4.6875 C0 3 0 3 0 0 Z " fill="#F4F3F1" transform="translate(228,401)"/>
<path d="M0 0 C5.28 0 10.56 0 16 0 C16 0.99 16 1.98 16 3 C16.66 3 17.32 3 18 3 C18.33 2.34 18.66 1.68 19 1 C19.99 2.32 20.98 3.64 22 5 C21.67 5.66 21.34 6.32 21 7 C20.34 6.34 19.68 5.68 19 5 C17.32774271 5.30404678 15.66246041 5.64628502 14 6 C10.93044836 6.35653594 8.0561757 6.51396807 5 6 C1.9375 3.5625 1.9375 3.5625 0 1 C0 0.67 0 0.34 0 0 Z " fill="#F0EFEF" transform="translate(556,401)"/>
<path d="M0 0 C2 2 2 2 2.25 5 C2 8 2 8 0 10 C-3.1304173 10.33302312 -5.17898298 10.47671956 -7.9375 8.875 C-9 7 -9 7 -8.8125 3.875 C-8.544375 2.92625 -8.27625 1.9775 -8 1 C-5.23749964 -0.38125018 -3.05268901 -0.19079306 0 0 Z " fill="#0B0B0B" transform="translate(433,367)"/>
<path d="M0 0 C2.875 1.8125 2.875 1.8125 5 4 C5 4.99 5 5.98 5 7 C-0.28 7 -5.56 7 -11 7 C-8.4849168 0.712292 -6.63371802 -0.79604616 0 0 Z " fill="#EEEEED" transform="translate(238,388)"/>
<path d="M0 0 C2.875 2.375 2.875 2.375 5 5 C5 5.66 5 6.32 5 7 C-0.28 7 -5.56 7 -11 7 C-8.51752211 0.79380528 -6.60571843 -0.92480058 0 0 Z " fill="#F0EEEE" transform="translate(567,388)"/>
<path d="M0 0 C0.66 0.33 1.32 0.66 2 1 C1.50628906 1.47050781 1.01257813 1.94101563 0.50390625 2.42578125 C-0.13675781 3.04839844 -0.77742188 3.67101562 -1.4375 4.3125 C-2.07558594 4.92738281 -2.71367187 5.54226562 -3.37109375 6.17578125 C-5.2221418 8.00644056 -5.2221418 8.00644056 -6 11 C-8.5625 12.1875 -8.5625 12.1875 -11 13 C-9.46356148 9.31930113 -7.21849055 7.01224796 -4.375 4.25 C-3.55773437 3.45078125 -2.74046875 2.6515625 -1.8984375 1.828125 C-0.95871094 0.92320312 -0.95871094 0.92320312 0 0 Z " fill="#E6E7E7" transform="translate(508,249)"/>
<path d="M0 0 C3.25543229 0.34879632 4.01873107 1.02133261 6.25 3.5625 C7.11625 4.7690625 7.11625 4.7690625 8 6 C4.61976483 6 2.16531063 5.12544378 -1 4 C-0.67 2.68 -0.34 1.36 0 0 Z " fill="#E6E7E6" transform="translate(242,401)"/>
<path d="M0 0 C0.66 0.66 1.32 1.32 2 2 C1.01 2.495 1.01 2.495 0 3 C-0.46954261 6.04581269 -0.46954261 6.04581269 -0.625 9.5625 C-0.69976562 10.76003906 -0.77453125 11.95757812 -0.8515625 13.19140625 C-0.90054687 14.11824219 -0.94953125 15.04507812 -1 16 C-1.33 16 -1.66 16 -2 16 C-2 11.05 -2 6.1 -2 1 C-1.34 0.67 -0.68 0.34 0 0 Z " fill="#16171A" transform="translate(454,409)"/>
</svg>
